<?xml version="1.0" encoding="UTF-8"?><svg id="Layer_2" xmlns="http://www.w3.org/2000/svg" viewBox="0 0 855.31 95.87"><defs><style>.cls-1{fill:#000225;}.cls-2{fill:#7333f7;}</style></defs><g id="Layer_1-2"><path class="cls-2" d="M280.93,60.15c0-20.37,12.9-34.76,31.77-34.76s31.1,11.95,31.77,32.45l-.14,2.85h-56.22v1.22c.27,16.02,9.91,27.7,25.26,27.7,11.27,0,20.37-6.65,23.08-17.38h7.06c-2.99,13.85-14.53,23.63-29.6,23.63-19.55,0-33-14.12-33-35.71ZM312.84,31.5c-12.63,0-23.08,9.37-24.17,23.36h48.34c-1.09-15.07-10.73-23.36-24.17-23.36Z"/><path class="cls-2" d="M420.26,0v95.05h-5.97l-1.09-15.75c-4.34,9.64-13.31,16.57-26.21,16.57-18.87,0-32.45-13.58-32.45-35.3s13.58-35.17,32.45-35.17c12.9,0,22.13,6.52,26.34,16.29V0h6.93ZM361.6,60.56c0,17.11,10.59,29.06,25.94,29.06s25.94-11.95,25.94-28.92-10.59-29.19-25.94-29.19-25.94,12.08-25.94,29.06Z"/><path class="cls-2" d="M435.96,26.21h6.92v38.16c0,16.43,7.88,25.12,20.64,25.12,14.26,0,23.22-11.41,23.22-29.47V26.21h6.92v68.84h-6.11l-.95-14.53c-3.94,8.83-11.95,15.34-24.17,15.34-15.21,0-26.48-9.5-26.48-31.09V26.21Z"/><path class="cls-2" d="M506.93,60.7c0-20.91,13.31-35.3,32.72-35.3,15.62,0,26.34,8.69,29.19,22.95h-7.2c-2.44-10.32-10.59-16.84-22.13-16.84-15.21,0-25.53,12.08-25.53,29.19s10.46,28.92,25.53,28.92c11.41,0,19.69-6.52,22-16.7h7.33c-2.72,13.99-13.71,22.95-29.33,22.95-19.42,0-32.59-13.99-32.59-35.17Z"/><path class="cls-2" d="M637.22,41.69l1.09-15.48h5.97v68.84h-5.97l-1.09-15.89c-4.34,9.64-13.31,16.7-26.21,16.7-18.87,0-32.45-13.58-32.45-35.3s13.58-35.17,32.45-35.17c12.76,0,22,6.65,26.21,16.29ZM585.62,60.56c0,17.11,10.59,29.06,25.94,29.06s25.94-11.95,25.94-28.92-10.59-29.19-25.94-29.19-25.94,12.08-25.94,29.06Z"/><path class="cls-2" d="M660.84,6.93h6.93v19.28h18.33v6.38h-18.33v46.3c0,7.06,2.58,9.78,9.5,9.78h10.05v6.38h-10.46c-11.68,0-16.02-5.02-16.02-16.02V6.93Z"/><path class="cls-2" d="M696.06,6.79c0-2.72,2.04-4.75,4.75-4.75s4.75,2.04,4.75,4.75c0,2.85-2.04,4.89-4.75,4.89s-4.75-2.04-4.75-4.89ZM704.34,26.21v68.84h-6.92V26.21h6.92Z"/><path class="cls-2" d="M716.98,60.56c0-20.78,13.58-35.17,33-35.17s33.13,14.39,33.13,35.17-13.71,35.3-33.13,35.3-33-14.39-33-35.3ZM775.92,60.56c0-16.97-10.59-29.06-25.94-29.06s-25.94,12.08-25.94,29.06,10.59,29.06,25.94,29.06,25.94-11.95,25.94-29.06Z"/><path class="cls-2" d="M802.35,26.21l1.09,14.67c3.94-8.96,12.08-15.48,24.71-15.48,15.62,0,27.16,9.37,27.16,31.1v38.56h-6.92v-38.29c0-16.29-8.01-24.99-21.32-24.99-14.67,0-23.76,11.41-23.76,29.33v33.95h-6.92V26.21h5.97Z"/><g id="Layer_1-3"><path class="cls-1" d="M53.4,24.83h15.86v68.12h-15.86v-7.12c-6.96,8.09-15.53,9.22-20.39,9.22C11.98,95.05,0,77.58,0,58.81,0,36.64,15.21,23.05,33.17,23.05c5.02,0,13.75,1.29,20.22,9.71v-7.93h.01ZM16.19,59.13c0,11.81,7.44,21.68,18.93,21.68,10.03,0,19.25-7.28,19.25-21.52s-9.22-22-19.25-22c-11.49,0-18.93,9.71-18.93,21.84ZM88.14,24.83h15.86v6.15c1.78-2.1,4.37-4.37,6.63-5.66,3.07-1.78,6.15-2.27,9.71-2.27,3.88,0,8.09.65,12.46,3.24l-6.47,14.4c-3.56-2.27-6.47-2.43-8.09-2.43-3.4,0-6.8.48-9.87,3.72-4.37,4.69-4.37,11.16-4.37,15.69v35.27h-15.86V24.82h0ZM143.04,24.83h15.86v6.31c5.34-6.47,11.65-8.09,16.83-8.09,7.12,0,13.75,3.4,17.64,10.03,5.66-8.09,14.24-10.03,20.22-10.03,8.25,0,15.53,3.88,19.42,10.68,1.29,2.27,3.56,7.28,3.56,17.15v42.07h-15.86v-37.54c0-7.6-.81-10.68-1.46-12.13-.97-2.59-3.4-5.99-9.06-5.99-3.88,0-7.28,2.1-9.38,5.02-2.75,3.88-3.07,9.71-3.07,15.53v35.11h-15.86v-37.54c0-7.6-.81-10.68-1.46-12.13-.97-2.59-3.4-5.99-9.06-5.99-3.88,0-7.28,2.1-9.38,5.02-2.75,3.88-3.07,9.71-3.07,15.53v35.11h-15.86V24.83h-.01Z"/></g></g></svg>